<?xml version="1.0" standalone="no"?>
<!DOCTYPE svg PUBLIC "-//W3C//DTD SVG 1.1//EN" "http://www.w3.org/Graphics/SVG/1.1/DTD/svg11.dtd">

<svg xmlns:rdf="http://www.w3.org/1999/02/22-rdf-syntax-ns#" xmlns="http://www.w3.org/2000/svg" xmlns:svg="http://www.w3.org/2000/svg" height="1052.3622" width="744.09448" version="1.1" xmlns:cc="http://creativecommons.org/ns#" id="svg2984" xmlns:dc="http://purl.org/dc/elements/1.1/">

<defs id="defs2986">

<marker refY="0" refX="0" style="overflow:visible" orient="auto" id="Arrow1Mend">

<path style="fill-rule:evenodd;stroke:#000000;stroke-width:1pt" transform="matrix(-0.4,0,0,-0.4,-4,0)" id="path3794" d="M 0,0 5,-5 -12.5,0 5,5 0,0 z" />

</marker>

<marker refY="0" refX="0" style="overflow:visible" orient="auto" id="Arrow2Lend">

<path style="fill-rule:evenodd;stroke-width:0.625;stroke-linejoin:round" transform="matrix(-1.1,0,0,-1.1,-1.1,0)" id="path3806" d="M 8.7185878,4.0337352 -2.2072895,0.01601326 8.7185884,-4.0017078 c -1.7454984,2.3720609 -1.7354408,5.6174519 -6e-7,8.035443 z" />

</marker>

</defs>

<metadata id="metadata2989">

<rdf:RDF>

<cc:Work rdf:about="">

<dc:format>

image/svg+xml</dc:format>

<dc:type rdf:resource="http://purl.org/dc/dcmitype/StillImage" />

<dc:title />

</cc:Work>

</rdf:RDF>

</metadata>

<g id="layer1">

<path style="fill:#ffd42a;stroke:#000000;stroke-width:22.70000076;stroke-linecap:butt;stroke-linejoin:miter;stroke-miterlimit:21;stroke-opacity:1;stroke-dasharray:none;stroke-dashoffset:0;marker-start:url(#Arrow1Mend)" d="M 585.719994601,297.318027418 617.050420988,400.99481327 637.447345384,793.849334714 C 553.673922428,437.220256265 550.3538443,738.066497052 68.57143,274.28571 C 568.59792126,272.487179959 537.743661594,173.321884118 371.329777419,183.53235488 L 277.368514175,432.262060688 379.59076434,326.903150183 162.369670261,203.01739187 484.534808816,428.849862421 534.651370445,922.982360808 Z" id="path2992" />

</g>

</svg>

